<svg xmlns="http://www.w3.org/2000/svg" viewBox="0 0 30 20">
  <rect fill="#EE1C25" width="30" height="20"/>
  <g fill="#FF0">
    <polygon points="5,1 6.25,4.5 3,2.5 7,2.5 3.75,4.5"/>
    <polygon points="10,1 10.5,2 9,1.5 11,1.5 9.5,2" transform="rotate(23,10,1)"/>
    <polygon points="12,3 12.5,4 11,3.5 13,3.5 11.5,4" transform="rotate(-10,12,3)"/>
    <polygon points="12,6 12.5,7 11,6.5 13,6.5 11.5,7" transform="rotate(20,12,6)"/>
    <polygon points="10,8 10.5,9 9,8.5 11,8.5 9.5,9" transform="rotate(40,10,8)"/>
  </g>
</svg>