<svg xmlns="http://www.w3.org/2000/svg" viewBox="0 0 900 600">
  <rect fill="#fff" width="900" height="600"/>
  <g transform="translate(450,300)">
    <circle fill="#c60c30" r="150"/>
    <path fill="#003478" d="M0,-150 A150,150 0 0,0 0,150 A75,75 0 0,0 0,0 A75,75 0 0,1 0,-150"/>
    <g fill="#000" stroke="#fff" stroke-width="20">
      <g transform="rotate(-56.3)">
        <rect x="190" y="-95" width="130" height="20"/>
        <rect x="190" y="-55" width="130" height="20"/>
        <rect x="190" y="-15" width="130" height="20"/>
      </g>
      <g transform="rotate(56.3)">
        <rect x="190" y="-95" width="60" height="20"/>
        <rect x="260" y="-95" width="60" height="20"/>
        <rect x="190" y="-55" width="130" height="20"/>
        <rect x="190" y="-15" width="60" height="20"/>
        <rect x="260" y="-15" width="60" height="20"/>
      </g>
      <g transform="rotate(-123.7)">
        <rect x="190" y="-95" width="60" height="20"/>
        <rect x="260" y="-95" width="60" height="20"/>
        <rect x="190" y="-55" width="60" height="20"/>
        <rect x="260" y="-55" width="60" height="20"/>
        <rect x="190" y="-15" width="60" height="20"/>
        <rect x="260" y="-15" width="60" height="20"/>
      </g>
      <g transform="rotate(123.7)">
        <rect x="190" y="-95" width="130" height="20"/>
        <rect x="190" y="-55" width="60" height="20"/>
        <rect x="260" y="-55" width="60" height="20"/>
        <rect x="190" y="-15" width="130" height="20"/>
      </g>
    </g>
  </g>
</svg>